<svg width="24" height="24" viewBox="0 0 24 24" fill="none" xmlns="http://www.w3.org/2000/svg">
<g clip-path="url(#clip0)">
<path d="M6 8L6.001 17.444C6.001 18.305 6.697 19 7.558 19H8V22.542C8 23.346 8.707 24 9.51 24C10.316 24 11 23.346 11 22.541V19H13V22.542C13 23.346 13.707 24 14.511 24C15.317 24 16 23.346 16 22.541V19L16.444 18.999C17.302 18.999 18 18.303 18 17.442V8H6ZM22 9.471C22 8.666 21.305 8 20.5 8C19.695 7.999 19 8.667 19 9.472V15.578C19 16.384 19.694 17 20.5 17C21.305 17 22 16.385 22 15.578V9.471ZM5 9.471C5 8.666 4.305 8 3.5 8C2.695 7.999 2 8.667 2 9.472V15.578C2 16.384 2.694 17 3.5 17C4.305 17 5 16.385 5 15.578V9.471ZM14.951 2.159L15.891 0.3C15.959 0.168 15.872 0 15.728 0C15.662 0 15.598 0.038 15.564 0.105L14.615 1.983C13.084 1.246 11.071 1.171 9.386 1.983L8.436 0.105C8.403 0.038 8.339 0 8.272 0C8.128 0 8.041 0.168 8.109 0.3L9.049 2.159C7.204 3.193 6 4.743 6 6.999H18C18 4.743 16.796 3.193 14.951 2.159ZM9.501 5C9.225 5 9 4.776 9 4.5C9 4.226 9.225 4 9.501 4C9.777 4 10 4.226 10 4.5C10 4.776 9.777 5 9.501 5ZM14.499 5C14.223 5 14 4.776 14 4.5C14 4.226 14.223 4 14.499 4C14.775 4 15 4.226 15 4.5C15 4.776 14.775 5 14.499 5Z" fill="white"/>
</g>
<defs>
<clipPath id="clip0">
<rect width="24" height="24" fill="white"/>
</clipPath>
</defs>
</svg>
